<?xml version="1.0" encoding="UTF-8"?>
<svg id="Capa_1" data-name="Capa 1" xmlns="http://www.w3.org/2000/svg" viewBox="0 0 389.9 151.95">
  <defs>
    <style>
      .cls-1 {
        fill: #f4310f;
      }
    </style>
  </defs>
  <g>
    <path class="cls-1" d="M81.1,111.84l12.17,39.98-21.41.08-7.53-48.75-46.18-.24v48.99s-18.14-.05-18.14-.05V34.91s54.9.23,54.9.23c8.92.04,17.71,2.89,24.64,7.78,7.18,6.83,8.66,15.87,8.53,25.47-.14,10.89-5.8,20.33-16.95,22.72-6.27,1.34-12.91,1.82-19.07,2.28.03,1.26.02,2.97.51,2.97h3.94c11.11,0,21.15,4.16,24.59,15.48ZM70.27,67.83c-.32-9.81-6.02-16.74-16.23-16.85l-35.89-.38v36.64s35.9-.38,35.9-.38c11.11-.12,16.56-8.31,16.22-19.04Z"/>
    <polygon class="cls-1" points="384.99 101.07 331.62 101.11 331.54 136.3 389.9 136.35 389.9 151.88 313.73 151.89 313.71 34.93 389.74 34.87 389.82 50.52 331.56 50.54 331.61 85.55 384.86 85.52 384.99 101.07"/>
    <polygon class="cls-1" points="180.49 101.07 127.13 101.11 127.04 136.3 185.4 136.35 185.4 151.88 109.24 151.89 109.21 34.93 185.24 34.87 185.32 50.52 127.06 50.54 127.11 85.55 180.36 85.52 180.49 101.07"/>
    <polygon class="cls-1" points="282.12 35.11 300.94 34.95 266.47 151.95 228.79 151.83 194.28 35.22 212.85 35.08 245.67 148.63 249.29 149.22 282.12 35.11"/>
  </g>
  <path class="cls-1" d="M160.09,24.5c-4.78-4.37-8.78-8.89-12.74-13.97-3.63,4.36-7.97,9.29-12.3,13.79l-7.09-.09c4.72-7.9,8.21-15.48,10.3-24.23h18.14c2.09,8.73,5.62,16.35,10.25,24.17l-6.56.33Z"/>
</svg>